name Walk8.mot
datacolumns 19
datarows 20
range 1.14500000 1.16400000
endheader

                time	   L_ground_force_vx	   L_ground_force_vy	   L_ground_force_vz	   L_ground_force_px	   L_ground_force_py	   L_ground_force_pz	   R_ground_force_vx	   R_ground_force_vy	   R_ground_force_vz	   R_ground_force_px	   R_ground_force_py	   R_ground_force_pz	   L_ground_torque_x	   L_ground_torque_y	   L_ground_torque_z	   R_ground_torque_x	   R_ground_torque_y	   R_ground_torque_z	
          1.14500000	         37.73419691	        484.55182184	         28.28415556	         -0.11323784	          0.00000000	         -0.04267107	         -0.05277857	          0.56677576	          0.04926772	          0.00058294	          0.00000000	          0.00009420	          0.00000000	          0.58806425	          0.00000000	          0.00000000	          0.00653420	          0.00000000	
          1.14600000	         38.51437060	        486.59784270	         28.43421735	         -0.11315245	          0.00000000	         -0.04263786	         -0.05506197	          0.56259608	          0.04810700	          0.00056243	          0.00000000	          0.00009093	          0.00000000	          0.58753718	          0.00000000	          0.00000000	          0.00701286	          0.00000000	
          1.14700000	         39.29834439	        488.65515498	         28.58444822	         -0.11306685	          0.00000000	         -0.04260444	         -0.05733016	          0.55570452	          0.04663974	          0.00053769	          0.00000000	          0.00008699	          0.00000000	          0.58701081	          0.00000000	          0.00000000	          0.00750704	          0.00000000	
          1.14800000	         40.08599095	        490.72345691	         28.73469955	         -0.11298093	          0.00000000	         -0.04257072	         -0.05957235	          0.54587756	          0.04484352	          0.00050842	          0.00000000	          0.00008231	          0.00000000	          0.58648549	          0.00000000	          0.00000000	          0.00801614	          0.00000000	
          1.14900000	         40.87719070	        492.80242485	         28.88482081	         -0.11289460	          0.00000000	         -0.04253665	         -0.06177686	          0.53288300	          0.04269519	          0.00047434	          0.00000000	          0.00007687	          0.00000000	          0.58596312	          0.00000000	          0.00000000	          0.00853943	          0.00000000	
          1.15000000	         41.67183111	        494.89171213	         29.03466027	         -0.11280775	          0.00000000	         -0.04250216	         -0.06393110	          0.51648017	          0.04017090	          0.00043514	          0.00000000	          0.00007060	          0.00000000	          0.58544666	          0.00000000	          0.00000000	          0.00907609	          0.00000000	
          1.15100000	         42.46980652	        496.99094772	         29.18406519	         -0.11272029	          0.00000000	         -0.04246718	         -0.06602149	          0.49642008	          0.03724613	          0.00039049	          0.00000000	          0.00006345	          0.00000000	          0.58493948	          0.00000000	          0.00000000	          0.00962513	          0.00000000	
          1.15200000	         43.27101842	        499.09973531	         29.33288128	         -0.11263213	          0.00000000	         -0.04243164	         -0.06803347	          0.47244574	          0.03389576	          0.00034008	          0.00000000	          0.00005538	          0.00000000	          0.58444480	          0.00000000	          0.00000000	          0.01018544	          0.00000000	
          1.15300000	         44.07537574	        501.21765298	         29.48095160	         -0.11254317	          0.00000000	         -0.04239546	         -0.06995143	          0.44429242	          0.03009406	          0.00028358	          0.00000000	          0.00004633	          0.00000000	          0.58396562	          0.00000000	          0.00000000	          0.01075576	          0.00000000	
          1.15400000	         44.88279479	        503.34425310	         29.62811557	         -0.11245334	          0.00000000	         -0.04235857	         -0.07175874	          0.41168807	          0.02581481	          0.00022066	          0.00000000	          0.00003625	          0.00000000	          0.58350477	          0.00000000	          0.00000000	          0.01133464	          0.00000000	
          1.15500000	         45.69319895	        505.47906248	         29.77420818	         -0.11236254	          0.00000000	         -0.04232091	         -0.07343763	          0.37435372	          0.02103130	          0.00015099	          0.00000000	          0.00002508	          0.00000000	          0.58306528	          0.00000000	          0.00000000	          0.01192052	          0.00000000	
          1.15600000	         46.50651817	        507.62158234	         29.91905988	         -0.11227070	          0.00000000	         -0.04228239	         -0.07496923	          0.33200403	          0.01571642	          0.00007421	          0.00000000	          0.00001278	          0.00000000	          0.58265064	          0.00000000	          0.00000000	          0.01251160	          0.00000000	
          1.15700000	         47.32268833	        509.77128828	         30.06249685	         -0.11217772	          0.00000000	         -0.04224295	         -0.07633355	          0.28434785	          0.00984274	         -0.00001000	          0.00000000	         -0.00000073	          0.00000000	          0.58226510	          0.00000000	          0.00000000	          0.01310594	          0.00000000	
          1.15800000	         48.14165071	        511.92763048	         30.20434161	         -0.11208354	          0.00000000	         -0.04220253	         -0.07750940	          0.23108888	          0.00338261	         -0.00010200	          0.00000000	         -0.00001549	          0.00000000	          0.58191380	          0.00000000	          0.00000000	          0.01370138	          0.00000000	
          1.15900000	         48.96335137	        514.09003373	         30.34441386	         -0.11198808	          0.00000000	         -0.04216106	         -0.07847440	          0.17192645	         -0.00369180	         -0.00020213	          0.00000000	         -0.00003155	          0.00000000	          0.58160276	          0.00000000	          0.00000000	          0.01429556	          0.00000000	
          1.16000000	         49.78774064	        516.25789713	         30.48253134	         -0.11189125	          0.00000000	         -0.04211849	         -0.07920499	          0.10655630	         -0.01140836	         -0.00031073	          0.00000000	         -0.00004898	          0.00000000	          0.58133873	          0.00000000	          0.00000000	          0.01488592	          0.00000000	
          1.16100000	         50.61477312	        518.43059303	         30.61851053	         -0.11179300	          0.00000000	         -0.04207474	         -0.07967635	          0.03467157	         -0.01979486	         -0.00042813	          0.00000000	         -0.00006782	          0.00000000	          0.58112870	          0.00000000	          0.00000000	          0.01546967	          0.00000000	
          1.16200000	         51.44440790	        520.60746538	         30.75216666	         -0.11169325	          0.00000000	         -0.04202975	         -0.07986247	         -0.04403625	         -0.02887893	         -0.00055468	          0.00000000	         -0.00008814	          0.00000000	          0.58097957	          0.00000000	          0.00000000	          0.01604377	          0.00000000	
          1.16300000	         52.27660921	        522.78782775	         30.88331305	         -0.11159196	          0.00000000	         -0.04198345	         -0.07973605	         -0.12987613	         -0.03868786	         -0.00069070	          0.00000000	         -0.00010998	          0.00000000	          0.58089783	          0.00000000	          0.00000000	          0.01660495	          0.00000000	
          1.16400000	         53.11134672	        524.97096131	         31.01175978	         -0.11148906	          0.00000000	         -0.04193576	         -0.07926858	         -0.22315631	         -0.04924852	         -0.00083650	          0.00000000	         -0.00013339	          0.00000000	          0.58088974	          0.00000000	          0.00000000	          0.01714971	          0.00000000	
